<?xml version="1.0" encoding="UTF-8" standalone="no"?>
<!-- Created with Inkscape (http://www.inkscape.org/) -->

<svg
   width="16.385374mm"
   height="15.874986mm"
   viewBox="0 0 16.385374 15.874986"
   version="1.1"
   id="svg1"
   inkscape:version="1.3 (0e150ed6c4, 2023-07-21)"
   sodipodi:docname="LOG.svg"
   inkscape:export-filename="LOG.png"
   inkscape:export-xdpi="96"
   inkscape:export-ydpi="96"
   xmlns:inkscape="http://www.inkscape.org/namespaces/inkscape"
   xmlns:sodipodi="http://sodipodi.sourceforge.net/DTD/sodipodi-0.dtd"
   xmlns="http://www.w3.org/2000/svg"
   xmlns:svg="http://www.w3.org/2000/svg">
  <sodipodi:namedview
     id="namedview1"
     pagecolor="#ffffff"
     bordercolor="#000000"
     borderopacity="0.25"
     inkscape:showpageshadow="2"
     inkscape:pageopacity="0.0"
     inkscape:pagecheckerboard="0"
     inkscape:deskcolor="#d1d1d1"
     inkscape:document-units="mm"
     inkscape:zoom="10.26027"
     inkscape:cx="25.145537"
     inkscape:cy="38.44928"
     inkscape:window-width="1366"
     inkscape:window-height="705"
     inkscape:window-x="-8"
     inkscape:window-y="-8"
     inkscape:window-maximized="1"
     inkscape:current-layer="layer1" />
  <defs
     id="defs1" />
  <g
     inkscape:label="Capa 1"
     inkscape:groupmode="layer"
     id="layer1"
     transform="translate(-46.388013,-14.766901)">
    <path
       style="fill:#3771c8;stroke-width:0.0201349"
       d="m 50.377748,30.62978 c -0.242714,-0.04046 -0.943123,-0.250652 -1.230809,-0.369367 -0.488729,-0.201678 -0.718966,-0.395379 -0.911307,-0.76669 -0.165768,-0.320012 -0.230438,-0.577318 -0.231238,-0.920033 -6.09e-4,-0.271951 0.02982,-0.449018 0.147723,-0.858947 0.2462,-0.855977 0.535604,-1.413434 1.075874,-2.072362 0.229075,-0.279387 0.423705,-0.474415 0.758924,-0.76048 0.153391,-0.130898 0.391627,-0.336459 0.529414,-0.456803 0.137788,-0.120344 0.328025,-0.276138 0.42275,-0.346208 0.334121,-0.247157 1.449885,-0.993264 2.090069,-1.397621 0.869791,-0.549382 0.863144,-0.544198 0.936182,-0.730291 0.05359,-0.136552 0.05463,-0.228239 0.0043,-0.382328 -0.04715,-0.14442 -0.02764,-0.140323 0.04973,0.01045 0.07755,0.151079 0.08082,0.330055 0.0085,0.463271 -0.08613,0.158616 -0.527308,0.498977 -1.587686,1.224875 -0.30988,0.212133 -0.868584,0.626598 -1.215441,0.901655 -0.67766,0.537379 -0.989445,0.812753 -1.315844,1.16218 -0.886548,0.949087 -1.389608,1.877944 -1.530721,2.826355 -0.01087,0.07302 -0.0204,0.256541 -0.02118,0.407827 -0.0023,0.447667 0.09942,0.742386 0.34593,1.00206 0.434367,0.457574 1.4548,0.764832 2.717721,0.818322 0.351549,0.01489 0.496176,7.43e-4 1.051719,-0.102874 0.525893,-0.09809 0.716173,-0.146433 1.157657,-0.294136 1.110958,-0.371683 1.70676,-0.552883 2.022952,-0.615233 0.4827,-0.09518 1.056682,-0.142864 1.418082,-0.117803 0.381073,0.02643 1.037258,0.13625 1.111903,0.186103 0.05327,0.03556 0.05666,0.03566 -0.359957,-0.01063 -0.210653,-0.0234 -0.419572,-0.03475 -0.546485,-0.02969 -0.113008,0.0045 -0.372498,0.01275 -0.576664,0.01832 -0.943052,0.02571 -1.417248,0.148922 -2.598353,0.675152 -0.328865,0.14652 -0.431842,0.176836 -1.391984,0.409795 l -0.54648,0.132593 -0.845498,0.0041 c -0.465025,0.0023 -0.887925,-0.0029 -0.93978,-0.01159 z m 0.568584,-0.453344 c -0.382897,-0.0189 -0.601197,-0.04751 -0.88646,-0.116191 -0.656193,-0.157983 -1.15764,-0.540604 -1.332246,-1.016548 -0.177416,-0.4836 -0.115701,-1.107754 0.176788,-1.787962 0.216627,-0.503788 0.529951,-1.038805 0.783911,-1.338579 0.101918,-0.120303 0.799202,-0.819506 1.061759,-1.064682 0.27984,-0.261313 0.79464,-0.657361 1.696097,-1.304841 0.330889,-0.237663 0.431314,-0.300615 0.448352,-0.281047 0.01677,0.01926 -0.0305,0.06694 -0.200113,0.20186 -0.258305,0.205468 -0.913035,0.749748 -1.077875,0.896042 -1.135951,1.008143 -1.421155,1.306413 -1.847401,1.932034 -0.418153,0.61374 -0.54733,0.968655 -0.517545,1.421941 0.03654,0.556032 0.301483,1.010474 0.749858,1.286194 0.519268,0.319315 1.076606,0.454184 1.675327,0.405409 0.386105,-0.03146 0.521674,-0.08269 1.743497,-0.658851 1.443933,-0.680905 1.521541,-0.687729 0.380594,-0.03347 -0.471574,0.270417 -0.935567,0.539586 -1.031096,0.598153 -0.477221,0.292569 -0.744236,0.37819 -1.256345,0.402854 -0.623079,0.03001 -1.214273,-0.11879 -1.719655,-0.432829 -0.321267,-0.199631 -0.425967,-0.318228 -0.662221,-0.750127 -0.07689,-0.140561 -0.14891,-0.264411 -0.160046,-0.275224 -0.03279,-0.03184 -0.0018,0.437823 0.03699,0.560276 0.110151,0.347872 0.389693,0.620815 0.804376,0.785385 0.230204,0.09136 0.629992,0.193332 0.885991,0.22599 0.334357,0.04265 1.209217,0.02788 1.464158,-0.02473 0.300205,-0.06195 0.632499,-0.189141 1.319803,-0.505173 0.181472,-0.08344 0.455228,-0.209359 0.608343,-0.279809 0.709988,-0.326668 0.924861,-0.413247 1.330118,-0.535925 1.143015,-0.346008 2.352772,-0.358482 3.753196,-0.0387 0.400018,0.09134 1.081823,0.321456 1.099129,0.370964 0.0052,0.01492 7.4e-5,0.0216 -0.01137,0.01485 -0.01926,-0.01135 -0.590163,-0.139878 -1.335225,-0.300598 -0.170139,-0.0367 -0.325568,-0.07161 -0.345417,-0.07757 -0.06454,-0.01939 -0.03981,0.04539 0.03389,0.08881 0.111686,0.0658 0.336692,0.306053 0.401787,0.429014 0.136191,0.257245 0.159962,0.453814 0.07436,0.614844 -0.02854,0.0537 -0.05424,0.09764 -0.05711,0.09764 -0.0028,0 -0.0017,-0.06414 0.0022,-0.142526 0.02456,-0.463687 -0.330275,-0.848793 -0.965677,-1.048076 -0.164473,-0.05159 -0.197522,-0.05502 -0.536164,-0.05562 -0.461712,-8.25e-4 -0.976613,0.03396 -1.27856,0.08637 -0.582827,0.101159 -1.057191,0.283685 -2.371522,0.912517 -0.798822,0.382189 -0.892379,0.422184 -1.272851,0.544132 -0.363093,0.116378 -0.603862,0.166795 -0.923384,0.193356 -0.265957,0.02211 -0.303029,0.02213 -0.74239,4.46e-4 z m 0.0021,-1.033577 c -0.656168,-0.08014 -1.150502,-0.385532 -1.382283,-0.853969 -0.09864,-0.199367 -0.13554,-0.349304 -0.13554,-0.550827 0,-0.528778 0.267195,-1.201041 0.698463,-1.757341 0.380945,-0.491386 0.821211,-0.923194 1.502641,-1.473779 0.151958,-0.122778 0.219614,-0.166007 0.241524,-0.154318 0.02384,0.01272 -0.0076,0.05662 -0.145176,0.202632 -0.261258,0.277306 -1.153002,1.383735 -1.440309,1.787061 -0.319116,0.447981 -0.527192,1.04181 -0.527192,1.504557 0,0.216406 0.126341,0.478301 0.331686,0.687564 0.100822,0.102747 0.164546,0.142946 0.444638,0.280495 0.56749,0.278688 0.719967,0.359075 0.677523,0.357196 -0.02269,-10e-4 -0.142374,-0.01418 -0.265978,-0.02927 z m 0.56545,-3.681214 c 0.0013,-0.03515 0.0891,-0.109273 0.236695,-0.199856 0.29267,-0.17962 0.450026,-0.348276 0.66952,-0.717602 0.154438,-0.259861 0.258603,-0.392014 0.415156,-0.526698 0.146122,-0.125711 0.309439,-0.220835 0.477607,-0.278179 0.269225,-0.0918 0.27097,-0.08939 0.07356,0.101759 -0.09839,0.09527 -0.238166,0.241686 -0.310621,0.325381 -0.158604,0.183208 -0.47668,0.684265 -0.450324,0.709389 0.04176,0.03981 0.148096,-0.06734 0.383038,-0.385977 0.485371,-0.658289 0.577394,-0.754884 0.865429,-0.908439 0.132885,-0.07084 0.424758,-0.175205 0.421792,-0.150824 -8.62e-4,0.0075 -0.09398,0.09238 -0.206839,0.188699 -0.11287,0.09632 -0.201881,0.184784 -0.19781,0.196588 0.02278,0.06604 0.118788,0.01284 0.727216,-0.402983 1.032832,-0.70588 1.313315,-0.923363 1.569683,-1.217064 0.03302,-0.03784 0.106032,-0.121357 0.162226,-0.185585 0.05618,-0.06423 0.08954,-0.10954 0.07408,-0.100693 -0.01544,0.0088 -0.207682,0.14727 -0.427205,0.307604 -0.219523,0.160334 -0.427903,0.305706 -0.463079,0.323048 -0.125619,0.06192 -0.100325,0.01725 0.05587,-0.09872 0.225916,-0.167733 0.673628,-0.596812 0.848116,-0.812801 0.182367,-0.225765 0.353408,-0.486587 0.472515,-0.720507 0.08487,-0.166726 0.08936,-0.171875 0.07796,-0.08929 -0.02874,0.208285 -0.236828,0.664053 -0.422204,0.92479 -0.06933,0.0975 -0.0692,0.107292 6.68e-4,0.05702 0.183439,-0.131976 0.392054,-0.457095 0.516215,-0.80447 0.06059,-0.169571 0.06657,-0.207568 0.06629,-0.422245 -2.23e-4,-0.212981 -0.0066,-0.254055 -0.0663,-0.422664 -0.07413,-0.209739 -0.182477,-0.411906 -0.335992,-0.626883 -0.144974,-0.203039 -0.186437,-0.301061 -0.187434,-0.443175 -9.66e-4,-0.143025 0.04953,-0.249654 0.163642,-0.345159 0.09346,-0.07823 0.239603,-0.142861 0.302094,-0.133616 0.04263,0.0063 0.04157,0.0088 -0.01629,0.03861 -0.105813,0.05451 -0.257513,0.194188 -0.302818,0.278837 -0.09185,0.171625 -0.04127,0.315328 0.213916,0.607693 0.160125,0.183471 0.256213,0.329065 0.320835,0.486084 0.08662,0.210494 0.09721,0.27677 0.0958,0.599593 -0.0011,0.257146 -0.0094,0.342463 -0.04531,0.467561 -0.109668,0.38196 -0.341682,0.729702 -0.737339,1.105143 -0.568368,0.539364 -1.205773,0.998458 -2.122812,1.52898 -0.204166,0.118108 -0.433097,0.258405 -0.508749,0.311771 -0.207759,0.146559 -0.464308,0.416779 -0.604842,0.637074 -0.06805,0.106676 -0.156331,0.225328 -0.196175,0.26367 -0.103874,0.09996 -0.293461,0.189247 -0.528049,0.248696 -0.11207,0.0284 -0.254803,0.07601 -0.317185,0.105808 -0.06238,0.02979 -0.1691,0.06957 -0.237151,0.0884 -0.156823,0.04338 -0.526008,0.107493 -0.5254,0.09124 z M 50.09568,22.674576 c -0.03686,-0.01732 -0.06702,-0.03803 -0.06702,-0.04601 0,-0.008 0.0812,-0.02986 0.180441,-0.04862 0.389704,-0.07366 0.683419,-0.191096 0.929558,-0.371648 0.189316,-0.138873 0.869706,-0.830452 0.869706,-0.884011 0,-0.02329 -0.351365,0.123087 -0.791442,0.32972 -1.01805,0.478009 -1.264617,0.571622 -1.690934,0.641986 -0.212824,0.03513 -0.305268,0.0398 -0.621225,0.03141 -0.39899,-0.01059 -0.535829,-0.03425 -0.727302,-0.125759 -0.215609,-0.103041 -0.462794,-0.427616 -0.383346,-0.503357 0.0073,-0.0069 0.06644,0.03431 0.13145,0.09169 0.131171,0.115771 0.241013,0.171743 0.427361,0.217776 0.146821,0.03627 0.268031,0.03834 0.574033,0.0098 0.322949,-0.03011 0.450572,-0.06249 0.80084,-0.203156 0.171143,-0.06873 0.496767,-0.193699 0.72361,-0.277705 0.22684,-0.08401 0.570196,-0.214173 0.763011,-0.289261 0.705946,-0.274918 1.142216,-0.383927 1.60851,-0.401914 0.26532,-0.01024 0.33625,-0.0019 0.635312,0.07427 l 0.07852,0.02001 -0.115263,0.118682 c -0.172864,0.177992 -0.26759,0.384658 -0.379576,0.828128 -0.06985,0.276621 -0.285132,0.643525 -0.399976,0.68169 -0.0895,0.02974 -0.10349,0.02617 -0.09198,-0.02352 0.02872,-0.124062 0.183143,-0.68805 0.199872,-0.729996 0.01402,-0.03514 0.01161,-0.05448 -0.0088,-0.07063 -0.02255,-0.01784 -0.04287,0.0046 -0.10282,0.113303 -0.225962,0.409923 -0.586755,0.638627 -1.088683,0.690108 -0.07656,0.0079 -0.13902,0.0093 -0.138802,0.0033 5.87e-4,-0.01687 0.307506,-0.20893 0.412043,-0.257857 0.128286,-0.06004 0.34965,-0.283377 0.466516,-0.470669 0.05371,-0.08607 0.170228,-0.249675 0.258937,-0.363571 0.08871,-0.113896 0.161289,-0.211935 0.161289,-0.217863 0,-0.03745 -0.239857,0.170512 -0.650648,0.564122 -0.260286,0.249398 -0.529827,0.492249 -0.598978,0.539669 -0.281945,0.193336 -0.554403,0.286973 -0.96723,0.332416 -0.327131,0.03601 -0.314809,0.03609 -0.396972,-0.0025 z m 8.697303,-0.745022 c -0.165388,-0.04392 -0.241321,-0.09996 -0.477101,-0.352163 -0.229405,-0.245365 -0.388427,-0.378025 -0.591022,-0.493039 -0.07953,-0.04514 -0.12748,-0.08492 -0.123746,-0.102651 0.0033,-0.01592 0.131387,-0.08406 0.284497,-0.151423 0.580389,-0.255335 0.822611,-0.28843 2.299346,-0.314166 0.825396,-0.01438 1.325349,-0.07447 1.670374,-0.200759 0.351851,-0.12879 0.482714,-0.217616 0.590895,-0.401112 0.03926,-0.06659 0.04944,-0.07387 0.06171,-0.04419 0.05122,0.12379 -0.03448,0.32086 -0.185504,0.426542 -0.218225,0.152709 -0.594445,0.316613 -0.884801,0.385476 -0.148479,0.03521 -0.439676,0.08179 -0.670108,0.107198 -0.05387,0.0059 -0.142043,0.01624 -0.195908,0.02289 -0.05388,0.0067 -0.492345,0.01063 -0.974384,0.0088 -0.861293,-0.0032 -1.361047,0.01034 -1.361047,0.03689 0,0.0137 0.158089,0.08421 0.288695,0.128757 0.0397,0.01354 0.203794,0.08767 0.364629,0.164731 0.320601,0.153605 0.523329,0.21181 0.809122,0.23231 l 0.173594,0.01245 -0.06016,0.04591 c -0.0943,0.07194 -0.296215,0.127524 -0.461498,0.127026 -0.229768,-6.69e-4 -0.556026,-0.0937 -0.695463,-0.198261 -0.07685,-0.05762 -0.09369,-0.04944 -0.05937,0.02884 0.07509,0.171322 0.231306,0.292869 0.521526,0.405812 0.09329,0.0363 0.169842,0.07086 0.170116,0.0768 9.89e-4,0.0215 -0.13862,0.05804 -0.25843,0.06762 -0.07734,0.0062 -0.164384,-0.0013 -0.235958,-0.02033 z M 48.523256,21.32982 c -0.506856,-0.07636 -0.75581,-0.173469 -0.98007,-0.382315 -0.129187,-0.120309 -0.239683,-0.302133 -0.268799,-0.442323 l -0.01429,-0.06881 0.121187,0.107875 c 0.33846,0.301279 0.379751,0.328356 0.600175,0.393572 0.349698,0.103464 1.463577,0.02688 2.02303,-0.139087 0.109702,-0.03254 0.255135,-0.07604 0.323188,-0.09666 0.347228,-0.105207 1.063066,-0.241484 1.412602,-0.268924 0.07372,-0.0058 0.188711,-0.01719 0.25553,-0.02535 0.219128,-0.02674 0.796869,-0.02309 0.930231,0.0059 0.353155,0.07671 0.505018,0.121951 0.505139,0.150482 2.23e-4,0.02548 -0.0581,0.02861 -0.427793,0.023 -0.359841,-0.0055 -0.470402,1.49e-4 -0.694955,0.03497 -0.278048,0.04317 -0.64865,0.130571 -0.825926,0.194788 -0.05671,0.02054 -0.233027,0.07014 -0.391818,0.110219 -0.158788,0.04008 -0.400064,0.102384 -0.536169,0.138462 -0.136104,0.03608 -0.382021,0.101223 -0.546481,0.144769 -0.16446,0.04355 -0.363977,0.08474 -0.443372,0.09154 -0.07939,0.0068 -0.167552,0.01583 -0.195909,0.02005 -0.386775,0.05765 -0.507516,0.05877 -0.845498,0.0079 z m 6.132954,-0.479717 c -0.395083,-0.07224 -0.86826,-0.331158 -0.99657,-0.545326 -0.1153,-0.192455 -0.104603,-0.34565 0.05085,-0.728298 0.113733,-0.279941 0.120272,-0.317079 0.07357,-0.417726 -0.04868,-0.104923 -0.06962,-0.11828 -0.662117,-0.422392 -1.13582,-0.582986 -2.044304,-0.9754 -2.488808,-1.075023 -0.256024,-0.05738 -0.881021,-0.221474 -1.078785,-0.283237 -0.505468,-0.157858 -1.273884,-0.486504 -1.575003,-0.673617 -0.299537,-0.186129 -0.643976,-0.441249 -0.808674,-0.598975 -0.171699,-0.164427 -0.488157,-0.554111 -0.611707,-0.753251 -0.108129,-0.174285 -0.193302,-0.386414 -0.165712,-0.412716 0.01517,-0.01446 0.06962,0.04526 0.181148,0.198679 0.371646,0.511239 0.708168,0.837459 1.163169,1.127557 0.259901,0.165708 0.50775,0.280159 1.170165,0.540355 0.689555,0.270858 0.834104,0.317482 1.19776,0.38633 0.643232,0.12178 0.938356,0.217302 1.945361,0.629648 0.613745,0.251314 1.011525,0.455739 1.607256,0.825995 0.233174,0.14492 0.31508,0.219335 0.387721,0.352245 0.04685,0.08574 0.05422,0.123282 0.05415,0.276156 0,0.164333 -0.0065,0.191625 -0.09035,0.383347 -0.207252,0.473939 -0.175814,0.586046 0.225889,0.805526 0.224429,0.122621 0.346357,0.167678 0.556655,0.205708 0.400391,0.07241 0.919964,-0.0025 1.113707,-0.160617 0.128118,-0.104546 0.152317,-0.163802 0.150596,-0.368723 -7.8e-4,-0.09717 0.0064,-0.196498 0.01607,-0.220727 0.01553,-0.03891 -0.0034,-0.06073 -0.162167,-0.186781 -0.335691,-0.266535 -0.54303,-0.452258 -0.59583,-0.533744 -0.0919,-0.141787 -0.110719,-0.149136 -0.383047,-0.149627 -0.220208,-3.72e-4 -0.242305,-0.0037 -0.242305,-0.03614 0,-0.02432 0.03997,-0.05391 0.125335,-0.09281 0.06894,-0.03141 0.129413,-0.0634 0.134398,-0.07109 0.005,-0.0077 -0.04287,-0.04945 -0.106366,-0.09279 l -0.11545,-0.07881 0.125408,-0.01352 c 0.06896,-0.0074 0.125176,-0.01902 0.124912,-0.02573 -2.23e-4,-0.0067 -0.03171,-0.06749 -0.06994,-0.135072 -0.0382,-0.06758 -0.06351,-0.122763 -0.05624,-0.122635 0.0072,1.49e-4 0.06195,0.0126 0.121496,0.02771 0.05955,0.01511 0.108261,0.02158 0.108261,0.01438 0,-0.0072 -0.0091,-0.04341 -0.02026,-0.08047 -0.01115,-0.03706 -0.01746,-0.07006 -0.01402,-0.07334 0.0034,-0.0033 0.101443,0.02489 0.217777,0.0626 0.116334,0.03771 0.246292,0.07387 0.288789,0.08035 0.0425,0.0065 0.206492,-0.0068 0.364435,-0.02945 0.65937,-0.09465 1.080256,-0.123175 1.166709,-0.07907 0.04923,0.02512 0.100174,0.132059 0.09962,0.209119 -3.71e-4,0.0545 -5.94e-4,0.0544 -0.0739,-0.02886 -0.04042,-0.04595 -0.08199,-0.08355 -0.0924,-0.08355 -0.0104,0 -0.0189,0.03539 -0.0189,0.07864 0,0.04325 -0.0052,0.07863 -0.0117,0.07863 -0.0064,0 -0.0427,-0.03133 -0.0806,-0.06963 -0.07759,-0.07843 -0.05536,-0.07873 -0.382013,0.0051 -0.107741,0.02764 -0.203686,0.05691 -0.213197,0.06505 -0.0095,0.0081 0.0075,0.05056 0.03788,0.09427 0.03035,0.0437 0.05199,0.09517 0.04811,0.114373 -0.0038,0.0192 -0.04578,0.06087 -0.09313,0.09259 -0.09899,0.06631 -0.220021,0.08409 -0.428066,0.06285 l -0.135045,-0.01379 0.06693,-0.115336 c 0.09221,-0.15891 0.05841,-0.187018 -0.07562,-0.0629 -0.149304,0.138253 -0.164823,0.166448 -0.136522,0.248174 0.03512,0.101474 0.09172,0.160105 0.257314,0.266634 0.190036,0.122246 0.374233,0.313795 0.46006,0.478415 0.08137,0.156072 0.147322,0.407907 0.134881,0.515065 -0.01246,0.107249 -0.112466,0.279401 -0.226195,0.389376 -0.113835,0.110064 -0.153589,0.124366 -0.228504,0.08218 -0.0541,-0.03047 -0.06359,-0.02985 -0.170378,0.0111 -0.06219,0.02385 -0.196606,0.06499 -0.298673,0.09143 -0.231656,0.06 -0.644092,0.07722 -0.868193,0.03625 z m 3.201705,-0.224781 c 0.271712,-0.241694 0.946893,-0.512714 1.638094,-0.657531 0.129399,-0.02711 0.286312,-0.05498 0.348687,-0.06194 0.27052,-0.03016 0.615365,-0.09901 0.989849,-0.197631 0.5822,-0.153329 0.826519,-0.233095 1.085069,-0.354252 0.384571,-0.180219 0.577296,-0.346476 0.697154,-0.60142 l 0.04944,-0.105127 0.03278,0.07309 c 0.01803,0.0402 0.03278,0.08693 0.03278,0.10384 0,0.09985 -0.167145,0.329102 -0.39416,0.540617 -0.251474,0.234322 -0.408817,0.304971 -1.427469,0.640945 -0.210708,0.06949 -0.467812,0.119706 -0.890154,0.17385 -0.757531,0.09711 -1.651904,0.30124 -2.028929,0.463078 -0.100678,0.04322 -0.195757,0.07825 -0.211284,0.07783 -0.01551,-4.46e-4 0.01965,-0.04332 0.07814,-0.09536 z m -0.204034,-0.242263 c -0.01089,-0.03114 0.450381,-0.354839 0.625775,-0.439146 0.1283,-0.06166 0.580401,-0.235115 1.534102,-0.588563 0.793089,-0.29392 1.72528,-0.711044 1.987109,-0.889162 0.288296,-0.196113 0.442393,-0.359447 0.710025,-0.752555 0.143169,-0.210308 0.165357,-0.202993 0.09767,0.0322 -0.04718,0.163955 -0.148764,0.370892 -0.253047,0.515486 -0.09392,0.130223 -0.348836,0.369112 -0.542122,0.508043 -0.562912,0.404628 -0.946096,0.56428 -2.185237,0.910485 -1.066604,0.298007 -1.416954,0.424589 -1.827728,0.660382 -0.130201,0.07474 -0.134908,0.07612 -0.146545,0.04283 z m -9.087854,-0.04598 c -0.62843,-0.07641 -1.088096,-0.257562 -1.394339,-0.549504 -0.156565,-0.149252 -0.260035,-0.337587 -0.273479,-0.497782 l -0.0094,-0.111576 0.234634,0.22869 c 0.319187,0.311099 0.544368,0.443778 0.81286,0.478946 0.05626,0.0074 0.12448,0.01668 0.151591,0.02068 0.02711,0.004 0.129189,0.01289 0.226841,0.01974 0.09765,0.0069 0.20075,0.0162 0.229105,0.02079 0.02836,0.0046 0.269632,0.01389 0.536169,0.02069 0.440563,0.01122 0.510778,0.0083 0.772439,-0.03168 0.158302,-0.02421 0.376379,-0.05072 0.484615,-0.0589 0.228433,-0.01726 1.771594,-0.01116 1.939345,0.0077 0.183779,0.02063 0.413184,0.07095 0.55606,0.121986 0.141143,0.05042 0.483728,0.221404 0.469936,0.234551 -0.0045,0.0043 -0.118849,-0.0093 -0.254142,-0.03013 -0.442225,-0.06814 -0.663692,-0.08331 -1.029627,-0.07054 -0.192815,0.0067 -0.373772,0.01588 -0.402127,0.02032 -0.02835,0.0045 -0.139715,0.01337 -0.247465,0.01981 -0.178626,0.01069 -0.486447,0.03679 -1.041406,0.0883 -0.11342,0.01053 -0.271178,0.02387 -0.350573,0.02964 -0.172557,0.01255 -0.351798,0.02988 -0.42275,0.04087 -0.162369,0.02516 -0.773319,0.02357 -0.988324,-0.0026 z m 8.979576,-0.185751 c 0.118403,-0.378174 0.702814,-0.899078 1.36278,-1.214678 0.267316,-0.127832 0.957103,-0.402882 1.439589,-0.574029 0.761175,-0.270011 1.196678,-0.502666 1.659467,-0.886513 0.172537,-0.14311 0.421897,-0.418425 0.550523,-0.607799 0.04772,-0.07028 0.107696,-0.145475 0.133263,-0.167099 l 0.04647,-0.03932 -0.01117,0.121259 c -0.01389,0.150934 -0.08117,0.274354 -0.308931,0.566799 -0.393343,0.505032 -0.945197,0.922157 -1.564204,1.182319 -0.118118,0.04964 -0.446741,0.163263 -0.73029,0.252486 -1.349559,0.424661 -1.878566,0.694264 -2.404486,1.225445 -0.125983,0.127246 -0.183293,0.173995 -0.17301,0.141128 z m -4.423658,-0.30536 C 52.86299,19.71964 52.655005,19.645904 52.34083,19.569043 51.836249,19.4456 51.766436,19.439849 50.698869,19.433802 c -0.966811,-0.0055 -1.357912,-0.02233 -1.845663,-0.07952 -1.145152,-0.134281 -1.756723,-0.468887 -2.087095,-1.1419 -0.04908,-0.09999 -0.06157,-0.152167 -0.06175,-0.257983 -1.93e-4,-0.07295 0.01144,-0.159181 0.02569,-0.191618 l 0.02592,-0.05898 0.01572,0.07863 c 0.137744,0.689207 0.840959,1.063716 2.249534,1.198032 0.296574,0.02828 0.569274,0.04052 1.358008,0.06095 1.162761,0.03013 1.675151,0.118099 2.227169,0.382384 0.09641,0.04616 0.217045,0.110917 0.268085,0.143912 0.15073,0.09744 0.390076,0.288205 0.413133,0.329277 0.01176,0.02094 0.01873,0.03727 0.0155,0.03628 -0.0032,-9.88e-4 -0.08476,-0.04028 -0.181166,-0.08731 z M 57.567836,19.709 c 0.05557,-0.318696 0.29171,-0.773453 0.548237,-1.055725 0.116794,-0.128518 0.357071,-0.307676 0.579216,-0.43189 0.147377,-0.0824 1.406595,-0.637317 1.961104,-0.864231 0.513985,-0.210328 0.730055,-0.331357 1.054587,-0.590736 0.279811,-0.223636 0.736121,-0.676469 0.813505,-0.807333 0.06566,-0.111013 0.08946,-0.127588 0.139599,-0.09722 0.02598,0.01574 -0.159359,0.335354 -0.338537,0.583777 -0.118665,0.164524 -0.380009,0.438412 -0.585527,0.613619 -0.302398,0.257816 -0.522691,0.390514 -0.998279,0.601357 -0.158786,0.0704 -0.446455,0.200393 -0.639269,0.288881 -0.419205,0.192379 -0.49473,0.222732 -0.85581,0.343916 -0.153126,0.05139 -0.358256,0.131605 -0.455866,0.17826 -0.455875,0.217911 -0.838506,0.597765 -1.10777,1.099715 -0.115388,0.215122 -0.132199,0.235201 -0.11519,0.137611 z m -0.156174,-0.466896 c 3.71e-4,-0.488144 0.02229,-0.61878 0.142335,-0.850243 0.220783,-0.425723 0.672895,-0.776235 1.579236,-1.224364 2.212443,-1.093905 2.34144,-1.172252 2.958907,-1.796984 0.421551,-0.426493 0.650953,-0.630387 0.67597,-0.600797 0.01481,0.01751 -9.51e-4,0.05853 -0.05495,0.142539 -0.129228,0.201277 -0.741823,0.912494 -0.991431,1.151023 -0.383212,0.366225 -0.63731,0.512805 -2.196667,1.267231 -1.254316,0.606833 -1.423133,0.702069 -1.629059,0.918996 -0.191015,0.201231 -0.318606,0.489725 -0.319421,0.722227 -5.2e-4,0.150017 -0.1091,0.688122 -0.138858,0.688122 -0.02066,0 -0.02633,-0.09111 -0.02606,-0.41775 z m -4.124741,0.129494 c 0,-0.03738 -0.22638,-0.257808 -0.32966,-0.320989 -0.247287,-0.151273 -0.337803,-0.171973 -1.629422,-0.372636 -0.813405,-0.12637 -0.983562,-0.148998 -1.268249,-0.16866 -0.102079,-0.0071 -0.262012,-0.02532 -0.355406,-0.04061 -0.220908,-0.03615 -0.894274,-0.222277 -1.121604,-0.310019 -0.748739,-0.288995 -1.402061,-0.760625 -1.769828,-1.277631 -0.06752,-0.09492 -0.248579,-0.428165 -0.248579,-0.457519 0,-0.0085 0.127598,0.104221 0.283551,0.250423 0.319249,0.299286 0.508244,0.44989 0.778479,0.620335 0.389187,0.245474 0.543006,0.310331 1.361046,0.573883 0.658343,0.212102 0.716283,0.224345 1.546645,0.326819 0.327556,0.04042 0.891836,0.143919 1.279068,0.234595 0.668913,0.156637 1.199064,0.409263 1.367454,0.651612 0.0643,0.09254 0.137403,0.280526 0.116747,0.300218 -0.0056,0.0054 -0.01024,9.51e-4 -0.01024,-0.0098 z"
       id="path1"
       inkscape:transform-center-x="2.6257367"
       inkscape:transform-center-y="-2.3339882" />
    <text
       xml:space="preserve"
       style="font-size:4.23333px;font-family:'AR CENA';-inkscape-font-specification:'AR CENA';text-align:justify;opacity:0.544469;fill:#3771c8;stroke-width:0.053;stroke-linecap:round;stroke-linejoin:round"
       x="48.657284"
       y="22.864073"
       id="text1"><tspan
         sodipodi:role="line"
         id="tspan1"
         style="stroke-width:0.053"
         x="48.657284"
         y="22.864073" /></text>
    <text
       xml:space="preserve"
       style="font-style:normal;font-variant:normal;font-weight:normal;font-stretch:normal;font-size:2.82223px;font-family:'Berlin Sans FB';-inkscape-font-specification:'Berlin Sans FB';text-align:justify;opacity:0.544469;fill:#333333;stroke-width:0.053;stroke-linecap:round;stroke-linejoin:round"
       x="104.82174"
       y="24.823896"
       id="text2"><tspan
         sodipodi:role="line"
         id="tspan2"
         style="font-style:normal;font-variant:normal;font-weight:normal;font-stretch:normal;font-family:'Berlin Sans FB';-inkscape-font-specification:'Berlin Sans FB';fill:#333333;stroke-width:0.053"
         x="104.82174"
         y="24.823896">Central</tspan><tspan
         sodipodi:role="line"
         style="font-style:normal;font-variant:normal;font-weight:normal;font-stretch:normal;font-family:'Berlin Sans FB';-inkscape-font-specification:'Berlin Sans FB';fill:#333333;stroke-width:0.053"
         x="104.82174"
         y="28.351685"
         id="tspan3">Americana</tspan></text>
    <text
       xml:space="preserve"
       style="font-style:normal;font-variant:normal;font-weight:normal;font-stretch:normal;font-size:1.74189px;font-family:'Berlin Sans FB';-inkscape-font-specification:'Berlin Sans FB';text-align:center;text-anchor:middle;opacity:0.544469;fill:#333333;stroke-width:0.0327107;stroke-linecap:round;stroke-linejoin:round"
       x="57.311611"
       y="22.47529"
       id="text4"><tspan
         sodipodi:role="line"
         id="tspan4"
         style="font-style:normal;font-variant:normal;font-weight:normal;font-stretch:normal;font-family:Metal;-inkscape-font-specification:Metal;text-align:center;text-anchor:middle;stroke-width:0.0327107"
         x="57.311611"
         y="22.47529"
         transform="matrix(0.78601678,0,0,0.78601678,17.394774,7.039687)">Sepelios </tspan><tspan
         sodipodi:role="line"
         style="font-style:normal;font-variant:normal;font-weight:normal;font-stretch:normal;font-family:Metal;-inkscape-font-specification:Metal;text-align:center;text-anchor:middle;stroke-width:0.0327107"
         x="57.311611"
         y="24.70118"
         id="tspan5"
         transform="matrix(0.78601678,0,0,0.78601678,17.394774,7.039687)">Central </tspan><tspan
         sodipodi:role="line"
         style="font-style:normal;font-variant:normal;font-weight:normal;font-stretch:normal;font-family:Metal;-inkscape-font-specification:Metal;text-align:center;text-anchor:middle;stroke-width:0.0327107"
         x="57.311611"
         y="26.927073"
         id="tspan6"
         transform="matrix(0.78601678,0,0,0.78601678,17.394774,7.039687)">Americana</tspan></text>
  </g>
</svg>
